<?xml version="1.0" encoding="UTF-8"?>
<svg xmlns="http://www.w3.org/2000/svg" xmlns:xlink="http://www.w3.org/1999/xlink" viewBox="0 0 701 600.5">
  <defs>
    <style>
      .cls-1 {
        isolation: isolate;
      }

      .cls-2 {
        fill: url(#radial-gradient);
      }

      .cls-3 {
        fill: #fff;
        mix-blend-mode: overlay;
        opacity: .4;
        stroke: aqua;
        stroke-miterlimit: 10;
      }
    </style>
    <radialGradient id="radial-gradient" cx="4268.85" cy="121.93" fx="4268.85" fy="121.93" r="151.09" gradientTransform="translate(-9261.86 -47.16) scale(2.25 2.85)" gradientUnits="userSpaceOnUse">
      <stop offset="0" stop-color="#00bdff"/>
      <stop offset=".12" stop-color="#00b5ff"/>
      <stop offset=".92" stop-color="#08f"/>
    </radialGradient>
  </defs>
  <g class="cls-1">
    <g id="Capa_1" data-name="Capa 1">
      <rect class="cls-2" x=".5" y=".5" width="700" height="600"/>
      <path class="cls-3" d="m700.5,588.27c-13.47,4.45-27.18,7.45-41.44,7.45-28,0-55.36-9.04-81.88-19.76-52.41-21.18-105.09-50.93-161.34-40.55-26.14,4.82-48.83,20.28-73.39,31.56-12.28,5.64-24.71,9.2-37.82,8.92-13.85-.3-27.39-4.35-40.56-9.58-25.41-10.1-50.17-22.15-75.99-30.58-25.47-8.31-51.42-14.32-77.6-17.52-.73-.09-1.45-.16-2.18-.24,38.63-19.8,80.83-25.37,122.33-25.22,12.11.04,24.51.46,36.48,2.94,12.72,2.64,25.15,7.15,37.72,10.68,23.32,6.54,47.13,8.86,70.94,6.31,23.06-2.47,44.93-9.35,66.3-19.77,28.68,8.71,58.74,8.85,87.48.26,4.04-1.21,8.04-2.6,12-4.13,12.78.7,25.37,4.22,36.98,11.45,14.44,8.99,27.7,20.77,42.39,29.13,25.2,14.33,52.55,16.9,79.58,13.31v-21.59c-9.52,1.23-19.09,1.8-28.72,1.31-15.14-.77-30.29-4.63-44.27-12.27-14.51-7.93-28.05-18.73-43.35-24.2-7.62-2.73-15.46-4.65-23.36-5.76,17.81-9.03,34.96-20.4,51.85-31.82,27.3-18.47,57-39.1,87.85-48.93v-26.38c-23.64,5.59-46.23,16.54-67.78,30.4-7.62,4.9-15.16,10.05-22.68,15.23-18.55,5.22-37.51,7.15-57,4.14-15.43-2.38-31.33-7.66-44.39-18.79-6.56-5.59-11.21-13.34-15.94-21.25-4.86-8.13-10.11-15.04-17.18-20.01-31.75-22.35-64.99.07-97.65,4.49-18.24,2.47-36.57.14-54.14-6.52-16.9-6.41-32.34-17.4-48.08-27.28-16.61-10.43-33.54-18.98-52.01-21.45,2.97-1.71,5.94-3.44,8.89-5.2,17.38-3.72,34.82-6.58,52.52-4.97,9.96.91,19.43,3.64,28.91,7.57,9.52,3.94,18.82,8.56,28.77,10.45,10.05,1.91,20.02,1.27,29.96-1.33,9.59-2.51,18.56-7.54,27.92-11.14,17.32-6.67,35.14-4.16,52.21,2.45,33.65,13.04,63.32,38.72,97.64,49.47,38.39,12.02,78.57.88,114.46-17.78,12.11-6.3,23.91-13.43,35.56-20.96v-24.3c-9.09,6.78-18.21,13.48-27.52,19.76-34.59,23.33-74.43,41.82-114.12,34.61-34.61-6.29-64.67-32.38-97.13-47.21-10.36-4.73-21.02-8.1-31.86-9.67,21.66-7.74,42.91-17.74,64.12-27.36,19.8-8.98,39.75-17.68,60.15-24.18,22.73-7.25,45.55-11.04,68.93-12.53,13.2-.84,42.35-1.94,43.71-2.07,3.74.74,7.47,1.49,11.21,2.25,7.53,1.53,15.02,3.23,22.52,4.96v-22.22c-4.21-.89-8.42-1.71-12.62-2.56-16.89-3.41-33.86-5.93-50.89-7.87-30.73-3.51-61.57-5.27-92.33-2.28,13.75-5.88,27.7-10.81,41.96-14.68,37.55-10.2,75.64-14.71,113.88-14.7v-10.38c-14.52-1.17-29.06-2.14-43.57-2.66-45.01-1.59-90.54,5.44-131.47,30.87-8.39,5.21-16.49,11.36-24.29,18.15-54.47,10.26-108.84,25.43-164.03,20.9-18.12-1.49-36.17-4.93-53.87-10.13-5.06-1.48-10.18-3.02-15.31-4.67,12.82-1.14,25.64-3.37,38.12-7.07,15.9-4.72,31.43-11.34,46.76-18.42,29.92-13.82,60.96-30.89,93.09-33.8,6.49,1.71,13.01,3.19,19.58,4.28,14.8,2.43,29.3,1.92,44-1.32,14.12-3.11,27.86-8.86,41.41-14.67,13.6-5.83,27.24-11.47,40.85-17.26,13.45-5.72,26.98-10.2,41.25-9.95,15.53.27,30.39,5.95,44.99,12.24,7.49,3.22,14.95,6.62,22.49,9.66v-11.43c-5.12-2.16-10.2-4.47-15.28-6.73-14.76-6.59-29.59-12.55-45.17-14.93-1.47-.22-2.95-.4-4.43-.55,11.69-4.94,23.48-9.51,35.24-13.86,9.79-3.63,19.64-7.1,29.65-9.56v-7.62c-10.05,2.49-19.97,6.17-29.42,9.68-15.88,5.89-31.23,13.01-46.44,20.88-8.68.08-17.4,1.16-25.89,2.72-9.24,1.71-18.23,4.6-27.12,8.02-9.82,2.37-20.54,2.68-29.98-.13-9.78-2.91-19.01-8.06-28.83-10.74-7.33-2-14.82-3.74-22.08-6.11-7.55-2.47-14.94-5.78-22.44-8.44-5.34-1.89-10.77-3.53-16.24-4.68,15.92-8.07,31.05-19.2,45.87-29.7,21.67-15.35,44.14-27.87,68.77-32.84,13.26-2.68,27.12-3.01,40.36.07,14.2,3.3,27.8,10.63,40.74,18.63,6.1,3.77,11.82,8.38,18.18,11.44,6.19,2.98,12.64,4.58,19.21,5.4,5.07.63,10.29.53,15.31-.57v-22.63c-5.92,1.76-12.01,2.39-18.22,1.66-11.69-1.38-23.95-5.81-34.62-11.91-11.12-6.36-22.28-12.64-34.25-15.9-12.12-3.31-24.63-4.19-36.97-2.92-24.64,2.53-48.56,12.6-70.95,25.65-21.76,12.69-42.02,29.24-64.28,40.53-10.93,5.54-22.33,10.14-34.14,11.16-4.62.4-9.13.12-13.59-.54-10.2-2.22-20.46-5.55-30.13-9.34-12.3-4.83-24.18-11.09-35.96-17.64-11.48-6.37-22.71-13.15-34.7-17.86-2.66-1.05-5.32-1.95-7.98-2.73,23.03-7.49,45.65-18.23,69.57-18.74,18.17-.39,36.42,4.75,54.02-3.48,5.68-2.66,10.97-6.3,16.13-10.25h-18.37c-5.23,2.08-10.62,2.91-16.57,2.2-3.75-.45-7.45-1.29-11.14-2.2h-47.58c-7.76,2.04-15.41,4.72-22.84,7.47-17.97,6.65-35.52,15.1-53.4,22.11-.49.05-.97.09-1.46.15-7.99.95-16.15,1.59-24.06-.68-7.2-2.06-13.84-6.31-20.18-11-7.67-5.67-15.11-11.83-22.52-18.05h-20.19c11.39,9.49,22.59,19.37,34.2,28.41,13.33,10.38,26.78,16.54,42.43,17.73,25.96,1.97,50.99,7.86,75.61,18.59,7.09,3.09,14.16,6.32,21.27,9.37-2.15.47-4.3,1.05-6.45,1.75-12.53,4.08-24.39,10.89-36.75,15.68-25.28,9.8-51.67,12.85-77.92,8.88-26.09-3.95-50.48-16.97-75.29-27.26-13.6-5.64-27.57-9.69-41.69-11.76-6.46-5.08-12.59-11.08-18.95-16.24-12.88-10.43-27.13-18.21-41.87-23.15C27.89,18.2,14.2,15.82.5,15.79v9.24c14.21-.13,28.37,2.28,42.03,7.28,14.41,5.26,27.96,13.39,40.43,24,1.65,1.4,3.29,2.82,4.94,4.23-10.2-.54-20.44,0-30.65,1.82-20.14,3.59-39.16,12.77-56.75,25.42v11.93c18.04-7.77,37.01-11.74,56.02-13.53,11.8-1.11,23.81-1.22,35.61.07,12.71,1.38,25.06,5.19,37.5,8.66,20.32,5.66,40.42,12.03,60.94,15.94-9.87,3.64-20.32,5.58-30.22,7.15-14.89,2.35-29.85,3.86-44.72,6.45-14.84,2.58-29.56,5.9-42.98,14.79-11.49,7.6-22.71,15.9-35.09,20.32-12.26-2.74-24.63-4.7-37.05-5.85v18.25c12.65.5,25.29,1.81,37.88,3.45,16.27,2.11,32.4,5.45,48.44,9.43-11.28,2.5-22.49,5.83-33.6,10.01-17.99,6.77-35.67,15.31-52.72,25.32v30.57c.99-.59,1.98-1.19,2.97-1.78,15.03-8.82,30.34-16.86,46.06-23.46,31.79-13.36,64.81-20.62,98.32-19.76,34.38.88,68.62,8.53,103.02,7.98,7.2,3.72,14.51,7.12,22.12,9.8,15.64,5.51,31.56,9.47,47.67,11.89-6.96,2.53-13.81,5.77-20.38,8.83-12.76,5.95-25.77,10.83-38.12,18.16-12.46,7.38-24.75,15.19-37.16,22.71-5.65,3.43-11.35,6.8-17.1,10.06-3.91.04-7.83.62-11.74.83-9.28.5-18.5.62-27.76-.56-17-2.16-33.61-9-50.09-14.44-9-2.97-17.93-6.05-27.19-7.38-8.76-1.25-17.62-1.53-26.41-2.28-17.48-1.49-35.3-1.22-52.73,1.12-3.83.52-7.66,1.11-11.47,1.8v13.34c19.79-2.83,39.73-2.89,59.73,1.45,8.85,1.92,17.3,5.1,25.75,8.94,8.42,3.83,17.02,6.82,25.61,9.98,13.82,5.08,27.89,9.56,42.2,11.56-.85.26-1.7.53-2.55.77-31.61,9.07-64.72,8.97-96.93,7.41-17.91-.87-36.04-.82-53.8,1.99v9.98c15.18-1.68,30.57-1.37,45.8-.52,32.69,1.82,65.29,9.49,98.03,4.5,24.01-3.66,46.72-13.46,68.82-25.51,1.28.08,2.56.18,3.84.31,18.63,1.91,35.73,10.34,52.24,21.12,15.19,9.93,29.94,21.08,45.95,28.8,16.95,8.18,35.33,11.83,53.43,11.15,18.48-.7,35.93-7.52,53.95-11.96,14.94-3.68,32.55-5.26,46.05,5.5,7,5.58,10.66,14.13,14.56,23.1,4.04,9.3,9.44,16.95,16.05,23.38,12.83,12.49,28.91,18.61,44.63,21.97,8.98,1.92,18.26,2.97,27.61,3.07-6.26,3.83-12.6,7.46-19.05,10.76-28.26,14.45-57.84,20.86-88.24,17.18-15.06-1.82-29.99-6.48-44.15-13.27-14.58-6.99-28.37-16.54-42.27-25.42-27.85-17.78-56.73-30.27-87.76-34.74-29.8-4.3-60.31-2.36-89.51,6.57-23.2,7.1-44.99,19.61-67.36,29.9-3.95,1.48-7.85,3.3-11.7,4.84-6.22,2.48-12.48,4.75-18.77,6.9-23.18,6.58-48.63,7.22-69.97-7.24-12.55-8.51-20.98-21.94-29.35-36.23-.92-1.58-1.86-3.13-2.81-4.66v16.71c5.18,9.6,10.67,18.84,18.03,26.07,11.33,11.13,24.81,17.38,38.82,20.04-18.71,6.07-37.68,11.56-56.85,14.06v23.15c.66-.1,1.32-.2,1.98-.3,32.82-5.33,64.29-18.34,95.44-32.1,8.12-3.59,16.2-7.33,24.18-11.4,6.12-3.12,12.86-6.17,18.58-10.8,2.07-1,4.14-2.02,6.2-3.05,28.04-5.7,57.8-2.56,84.97,7.7,13.27,5.01,26.08,11.8,38.39,19.84,2.86,1.87,5.69,3.78,8.53,5.71-14.58-3.74-29.27-6.06-44.59-5.35-24.45,1.14-49.02,5.69-72.84,12.74-25.62,7.58-50.42,18.74-73.78,34.23-21.34-.74-42.66,1.16-63.75,6.13-7.96,1.87-15.71,4.49-23.31,7.61v20.42c7.08-1.46,14.17-2.6,21.16-3.55,25.32-3.46,50.6-3.91,76.01-1.81,18.87,1.56,37.6,4.91,56.12,9.62-.89.14-1.78.29-2.67.45-19.84,3.52-38.26,11.51-56.52,21.83-12.18,6.88-24.29,13.75-36.65,19.9h25.15c.98-.59,1.96-1.18,2.93-1.78,18.11-11.19,36.25-21.96,55.98-27.56,11.38-3.23,22.99-5.09,34.67-6.29,24.15,7.78,47.53,18.65,71.62,26.69,27.11,9.05,55.65,13.32,82.81,2.39,13.29-5.35,25.77-13.14,38.3-20.76,12.06-3.3,24.28-.37,36.3,3.53,14.49,4.7,28.48,11.94,41.93,20.22,1.92,1.18,3.83,2.37,5.74,3.56h31c-25.19-13.86-49.04-31.85-76.51-37.71-6-1.28-12.07-1.74-18.08-1.31,3.45-1.8,6.93-3.49,10.47-5.01,54.13-23.22,111.76,7.09,162.92,28.94,12.73,5.44,25.57,10.72,38.57,15.09h98.74v-8.73Z"/>
    </g>
  </g>
</svg>